<svg width="32" height="32" viewBox="0 0 32 32" fill="none" xmlns="http://www.w3.org/2000/svg">
<path d="M14.8007 2.14938C14.8007 2.66422 15.3375 3.08119 15.9999 3.08119V32C14.5191 29.9251 10.13 28.14 5.28668 25.6634C0.0417921 22.9807 -0.987119 19.7606 0.830099 16.9047C2.23634 14.6949 5.93373 13.3156 8.89062 14.6669C8.96873 14.7027 9.15739 14.7152 9.23982 14.5274C9.27071 14.4568 9.29058 14.3837 9.30298 14.3196C9.31871 14.2416 9.44541 14.2198 9.51623 14.2762C10.4011 14.9793 11.2445 16.1282 11.652 17.0253C11.6933 17.1172 11.5996 17.2125 11.4753 17.2011C10.4301 17.1053 9.18946 16.964 8.2056 16.9325C8.09602 16.9288 8.02972 16.8354 8.08973 16.764C8.15898 16.682 8.23413 16.5822 8.27308 16.4969C8.35217 16.3222 8.21367 16.2582 8.12907 16.2271C6.82139 15.7554 4.66186 16.2228 4.08366 17.7138C3.34473 19.6184 5.51528 21.2755 8.2538 22.4515C11.973 24.0486 12.852 23.2574 13.1261 21.3148C13.1261 21.3148 14.3881 8.62938 14.43 8.19788C14.4814 7.67632 14.4477 7.41653 13.9596 7.3043C13.5424 7.20828 10.071 6.64956 9.29766 6.48794C9.16487 6.46011 9.08421 6.41622 9.06257 6.26408C9.03325 6.06347 8.99902 5.79833 8.98997 5.7335C8.96873 5.57264 9.09031 5.53732 9.29865 5.53732H13.8626C14.5915 5.53732 14.7131 5.37127 14.7352 5.15811C14.7595 4.91683 14.7898 4.61499 14.8048 4.42707C14.8339 4.0734 14.5776 3.99542 14.4582 3.93318C13.7186 3.54817 13.2331 2.89266 13.2331 2.14938C13.2331 0.961917 14.4723 -1.56327e-05 15.9999 -1.56327e-05V1.21864C15.3375 1.21864 14.8007 1.63424 14.8007 2.14938Z" fill="#F9A72B"/>
<path d="M17.1991 2.14938C17.1991 2.66422 16.6624 3.08119 16.0002 3.08119V32C17.4811 29.9251 21.8702 28.14 26.7135 25.6634C31.958 22.9807 32.9869 19.7606 31.1701 16.9047C29.7639 14.6949 26.0665 13.3156 23.1092 14.6669C23.0315 14.7027 22.8424 14.7152 22.7602 14.5274C22.7295 14.4568 22.7096 14.3837 22.6968 14.3196C22.6815 14.2416 22.5548 14.2198 22.4836 14.2762C21.5991 14.9793 20.7553 16.1282 20.3482 17.0253C20.3065 17.1172 20.4006 17.2125 20.5249 17.2011C21.5701 17.1053 22.8103 16.964 23.794 16.9325C23.904 16.9288 23.9703 16.8354 23.9101 16.764C23.8412 16.682 23.7659 16.5822 23.7271 16.4969C23.648 16.3222 23.7863 16.2582 23.8711 16.2271C25.1788 15.7554 27.3383 16.2228 27.9165 17.7138C28.6555 19.6184 26.4845 21.2755 23.746 22.4515C20.0272 24.0486 19.1478 23.2574 18.8737 21.3148C18.8737 21.3148 17.6119 8.62938 17.5698 8.19788C17.5188 7.67632 17.5525 7.41653 18.0402 7.3043C18.4578 7.20828 21.9288 6.64956 22.7021 6.48794C22.8351 6.46011 22.9156 6.41622 22.9376 6.26408C22.9667 6.06347 23.0012 5.79833 23.01 5.7335C23.0315 5.57264 22.9099 5.53732 22.7013 5.53732H18.1372C17.4085 5.53732 17.2869 5.37127 17.265 5.15811C17.2402 4.91683 17.2103 4.61499 17.1952 4.42707C17.1663 4.0734 17.4222 3.99542 17.542 3.93318C18.2812 3.54817 18.7671 2.89266 18.7671 2.14938C18.7671 0.961917 17.5273 -1.56327e-05 16.0002 -1.56327e-05V1.21864C16.6624 1.21864 17.1991 1.63424 17.1991 2.14938Z" fill="#F68712"/>
</svg>
