<svg width="176" height="31" viewBox="0 0 176 31" fill="none" xmlns="http://www.w3.org/2000/svg">
<path d="M9.64303 27.4565L1.2627 19.8478L9.64303 17.1304L15.4448 22.5652L22.5359 17.1304L15.4448 8.97826V14.413L1.2627 11.6957L7.06447 5.71739" stroke="white" stroke-width="2" stroke-linecap="round" stroke-linejoin="round"/>
<path d="M42.6908 22.0021C41.1508 22.0021 39.7574 21.6647 38.5108 20.9901C37.2788 20.3007 36.3108 19.3621 35.6068 18.1741C34.9028 16.9714 34.5508 15.6221 34.5508 14.1261C34.5508 12.6301 34.9028 11.2881 35.6068 10.1001C36.3108 8.89741 37.2861 7.95875 38.5328 7.28408C39.7794 6.59475 41.1728 6.25008 42.7128 6.25008C43.9154 6.25008 45.0154 6.45541 46.0128 6.86608C47.0101 7.26208 47.8608 7.85608 48.5648 8.64808L47.1348 10.0341C45.9761 8.81675 44.5314 8.20808 42.8008 8.20808C41.6568 8.20808 40.6228 8.46475 39.6988 8.97808C38.7748 9.49141 38.0488 10.2027 37.5208 11.1121C37.0074 12.0067 36.7508 13.0114 36.7508 14.1261C36.7508 15.2407 37.0074 16.2527 37.5208 17.1621C38.0488 18.0567 38.7748 18.7607 39.6988 19.2741C40.6228 19.7874 41.6568 20.0441 42.8008 20.0441C44.5168 20.0441 45.9614 19.4281 47.1348 18.1961L48.5648 19.5821C47.8608 20.3741 47.0028 20.9754 45.9908 21.3861C44.9934 21.7967 43.8934 22.0021 42.6908 22.0021ZM51.3952 10.1661H53.5072V21.8261H51.3952V10.1661ZM52.4512 7.92208C52.0405 7.92208 51.6959 7.79008 51.4172 7.52608C51.1532 7.26208 51.0212 6.93941 51.0212 6.55808C51.0212 6.17675 51.1532 5.85408 51.4172 5.59008C51.6959 5.31141 52.0405 5.17208 52.4512 5.17208C52.8619 5.17208 53.1992 5.30408 53.4632 5.56808C53.7419 5.81741 53.8812 6.13275 53.8812 6.51408C53.8812 6.91008 53.7419 7.24741 53.4632 7.52608C53.1992 7.79008 52.8619 7.92208 52.4512 7.92208ZM64.0957 21.1441C63.7877 21.4081 63.4064 21.6134 62.9517 21.7601C62.4971 21.8921 62.0277 21.9581 61.5437 21.9581C60.3704 21.9581 59.4611 21.6427 58.8157 21.0121C58.1704 20.3814 57.8477 19.4794 57.8477 18.3061V11.9041H55.8677V10.1661H57.8477V7.61408H59.9597V10.1661H63.3037V11.9041H59.9597V18.2181C59.9597 18.8487 60.1137 19.3327 60.4217 19.6701C60.7444 20.0074 61.1991 20.1761 61.7857 20.1761C62.4311 20.1761 62.9811 19.9927 63.4357 19.6261L64.0957 21.1441ZM76.7523 10.1661L71.0983 22.9921C70.5996 24.1801 70.0129 25.0161 69.3383 25.5001C68.6783 25.9841 67.8789 26.2261 66.9403 26.2261C66.3683 26.2261 65.8109 26.1307 65.2683 25.9401C64.7403 25.7641 64.3003 25.5001 63.9483 25.1481L64.8503 23.5641C65.4516 24.1361 66.1483 24.4221 66.9403 24.4221C67.4536 24.4221 67.8789 24.2827 68.2163 24.0041C68.5683 23.7401 68.8836 23.2781 69.1623 22.6181L69.5363 21.8041L64.3883 10.1661H66.5883L70.6583 19.4941L74.6843 10.1661H76.7523ZM85.8329 22.0021C84.2783 22.0021 82.8776 21.6647 81.6309 20.9901C80.3843 20.3007 79.4016 19.3547 78.6829 18.1521C77.9789 16.9494 77.6269 15.6074 77.6269 14.1261C77.6269 12.6447 77.9789 11.3027 78.6829 10.1001C79.4016 8.89741 80.3843 7.95875 81.6309 7.28408C82.8776 6.59475 84.2783 6.25008 85.8329 6.25008C87.3729 6.25008 88.7663 6.59475 90.0129 7.28408C91.2596 7.95875 92.2349 8.89741 92.9389 10.1001C93.6429 11.2881 93.9949 12.6301 93.9949 14.1261C93.9949 15.6221 93.6429 16.9714 92.9389 18.1741C92.2349 19.3621 91.2596 20.3007 90.0129 20.9901C88.7663 21.6647 87.3729 22.0021 85.8329 22.0021ZM85.8329 20.0441C86.9623 20.0441 87.9743 19.7874 88.8689 19.2741C89.7783 18.7607 90.4896 18.0567 91.0029 17.1621C91.5309 16.2527 91.7949 15.2407 91.7949 14.1261C91.7949 13.0114 91.5309 12.0067 91.0029 11.1121C90.4896 10.2027 89.7783 9.49141 88.8689 8.97808C87.9743 8.46475 86.9623 8.20808 85.8329 8.20808C84.7036 8.20808 83.6769 8.46475 82.7529 8.97808C81.8436 9.49141 81.1249 10.2027 80.5969 11.1121C80.0836 12.0067 79.8269 13.0114 79.8269 14.1261C79.8269 15.2407 80.0836 16.2527 80.5969 17.1621C81.1249 18.0567 81.8436 18.7607 82.7529 19.2741C83.6769 19.7874 84.7036 20.0441 85.8329 20.0441ZM108.049 5.50208V21.8261H106.025V19.9781C105.556 20.6234 104.962 21.1147 104.243 21.4521C103.525 21.7894 102.733 21.9581 101.867 21.9581C100.738 21.9581 99.7262 21.7087 98.8315 21.2101C97.9368 20.7114 97.2328 20.0147 96.7195 19.1201C96.2208 18.2107 95.9715 17.1694 95.9715 15.9961C95.9715 14.8227 96.2208 13.7887 96.7195 12.8941C97.2328 11.9994 97.9368 11.3027 98.8315 10.8041C99.7262 10.3054 100.738 10.0561 101.867 10.0561C102.703 10.0561 103.473 10.2174 104.177 10.5401C104.881 10.8481 105.468 11.3101 105.937 11.9261V5.50208H108.049ZM102.043 20.1101C102.777 20.1101 103.444 19.9414 104.045 19.6041C104.647 19.2521 105.116 18.7681 105.453 18.1521C105.791 17.5214 105.959 16.8027 105.959 15.9961C105.959 15.1894 105.791 14.4781 105.453 13.8621C105.116 13.2314 104.647 12.7474 104.045 12.4101C103.444 12.0727 102.777 11.9041 102.043 11.9041C101.295 11.9041 100.621 12.0727 100.019 12.4101C99.4328 12.7474 98.9635 13.2314 98.6115 13.8621C98.2742 14.4781 98.1055 15.1894 98.1055 15.9961C98.1055 16.8027 98.2742 17.5214 98.6115 18.1521C98.9635 18.7681 99.4328 19.2521 100.019 19.6041C100.621 19.9414 101.295 20.1101 102.043 20.1101ZM122.584 16.0621C122.584 16.2234 122.569 16.4361 122.54 16.7001H113.08C113.212 17.7267 113.659 18.5554 114.422 19.1861C115.199 19.8021 116.16 20.1101 117.304 20.1101C118.697 20.1101 119.819 19.6407 120.67 18.7021L121.836 20.0661C121.308 20.6821 120.648 21.1514 119.856 21.4741C119.078 21.7967 118.206 21.9581 117.238 21.9581C116.006 21.9581 114.913 21.7087 113.96 21.2101C113.006 20.6967 112.266 19.9854 111.738 19.0761C111.224 18.1667 110.968 17.1401 110.968 15.9961C110.968 14.8667 111.217 13.8474 111.716 12.9381C112.229 12.0287 112.926 11.3247 113.806 10.8261C114.7 10.3127 115.705 10.0561 116.82 10.0561C117.934 10.0561 118.924 10.3127 119.79 10.8261C120.67 11.3247 121.352 12.0287 121.836 12.9381C122.334 13.8474 122.584 14.8887 122.584 16.0621ZM116.82 11.8381C115.808 11.8381 114.957 12.1461 114.268 12.7621C113.593 13.3781 113.197 14.1847 113.08 15.1821H120.56C120.442 14.1994 120.039 13.4001 119.35 12.7841C118.675 12.1534 117.832 11.8381 116.82 11.8381ZM128.86 21.9581C127.907 21.9581 126.99 21.8334 126.11 21.5841C125.23 21.3201 124.541 20.9901 124.042 20.5941L124.922 18.9221C125.436 19.2887 126.059 19.5821 126.792 19.8021C127.526 20.0221 128.266 20.1321 129.014 20.1321C130.862 20.1321 131.786 19.6041 131.786 18.5481C131.786 18.1961 131.662 17.9174 131.412 17.7121C131.163 17.5067 130.848 17.3601 130.466 17.2721C130.1 17.1694 129.572 17.0594 128.882 16.9421C127.944 16.7954 127.174 16.6267 126.572 16.4361C125.986 16.2454 125.48 15.9227 125.054 15.4681C124.629 15.0134 124.416 14.3754 124.416 13.5541C124.416 12.4981 124.856 11.6547 125.736 11.0241C126.616 10.3787 127.797 10.0561 129.278 10.0561C130.056 10.0561 130.833 10.1514 131.61 10.3421C132.388 10.5327 133.026 10.7894 133.524 11.1121L132.622 12.7841C131.669 12.1681 130.547 11.8601 129.256 11.8601C128.362 11.8601 127.68 12.0067 127.21 12.3001C126.741 12.5934 126.506 12.9821 126.506 13.4661C126.506 13.8474 126.638 14.1481 126.902 14.3681C127.166 14.5881 127.489 14.7494 127.87 14.8521C128.266 14.9547 128.816 15.0721 129.52 15.2041C130.459 15.3654 131.214 15.5414 131.786 15.7321C132.373 15.9081 132.872 16.2161 133.282 16.6561C133.693 17.0961 133.898 17.7121 133.898 18.5041C133.898 19.5601 133.444 20.4034 132.534 21.0341C131.64 21.6501 130.415 21.9581 128.86 21.9581ZM139.882 21.9581C138.928 21.9581 138.012 21.8334 137.132 21.5841C136.252 21.3201 135.562 20.9901 135.064 20.5941L135.944 18.9221C136.457 19.2887 137.08 19.5821 137.814 19.8021C138.547 20.0221 139.288 20.1321 140.036 20.1321C141.884 20.1321 142.808 19.6041 142.808 18.5481C142.808 18.1961 142.683 17.9174 142.434 17.7121C142.184 17.5067 141.869 17.3601 141.488 17.2721C141.121 17.1694 140.593 17.0594 139.904 16.9421C138.965 16.7954 138.195 16.6267 137.594 16.4361C137.007 16.2454 136.501 15.9227 136.076 15.4681C135.65 15.0134 135.438 14.3754 135.438 13.5541C135.438 12.4981 135.878 11.6547 136.758 11.0241C137.638 10.3787 138.818 10.0561 140.3 10.0561C141.077 10.0561 141.854 10.1514 142.632 10.3421C143.409 10.5327 144.047 10.7894 144.546 11.1121L143.644 12.7841C142.69 12.1681 141.568 11.8601 140.278 11.8601C139.383 11.8601 138.701 12.0067 138.232 12.3001C137.762 12.5934 137.528 12.9821 137.528 13.4661C137.528 13.8474 137.66 14.1481 137.924 14.3681C138.188 14.5881 138.51 14.7494 138.892 14.8521C139.288 14.9547 139.838 15.0721 140.542 15.2041C141.48 15.3654 142.236 15.5414 142.808 15.7321C143.394 15.9081 143.893 16.2161 144.304 16.6561C144.714 17.0961 144.92 17.7121 144.92 18.5041C144.92 19.5601 144.465 20.4034 143.556 21.0341C142.661 21.6501 141.436 21.9581 139.882 21.9581ZM151.805 10.0561C153.419 10.0561 154.651 10.4521 155.501 11.2441C156.367 12.0361 156.799 13.2167 156.799 14.7861V21.8261H154.797V20.2861C154.445 20.8287 153.939 21.2467 153.279 21.5401C152.634 21.8187 151.864 21.9581 150.969 21.9581C149.664 21.9581 148.615 21.6427 147.823 21.0121C147.046 20.3814 146.657 19.5527 146.657 18.5261C146.657 17.4994 147.031 16.6781 147.779 16.0621C148.527 15.4314 149.715 15.1161 151.343 15.1161H154.687V14.6981C154.687 13.7887 154.423 13.0921 153.895 12.6081C153.367 12.1241 152.59 11.8821 151.563 11.8821C150.874 11.8821 150.199 11.9994 149.539 12.2341C148.879 12.4541 148.322 12.7547 147.867 13.1361L146.987 11.5521C147.589 11.0681 148.307 10.7014 149.143 10.4521C149.979 10.1881 150.867 10.0561 151.805 10.0561ZM151.321 20.3301C152.128 20.3301 152.825 20.1541 153.411 19.8021C153.998 19.4354 154.423 18.9221 154.687 18.2621V16.6341H151.431C149.642 16.6341 148.747 17.2354 148.747 18.4381C148.747 19.0247 148.975 19.4867 149.429 19.8241C149.884 20.1614 150.515 20.3301 151.321 20.3301Z" fill="white"/>
</svg>
